<mxfile host="app.diagrams.net" modified="2023-11-13T19:31:45.411Z" agent="Mozilla/5.0 (X11; Linux x86_64) AppleWebKit/537.36 (KHTML, like Gecko) Chrome/119.0.0.0 Safari/537.36" etag="PZ2xZzXG0G2dHT6LsyVL" version="22.1.0" type="github">
  <diagram id="6a731a19-8d31-9384-78a2-239565b7b9f0" name="Page-1">
    <mxGraphModel dx="16678" dy="10141" grid="1" gridSize="10" guides="1" tooltips="1" connect="1" arrows="1" fold="1" page="1" pageScale="1" pageWidth="1169" pageHeight="827" background="none" math="0" shadow="0">
      <root>
        <mxCell id="0" />
        <mxCell id="1" parent="0" />
        <mxCell id="PK9UF2O47_-60o2HS9_3-1542" value="&lt;font style=&quot;font-size: 96px;&quot;&gt;User&lt;br style=&quot;&quot;&gt;&lt;/font&gt;&lt;span style=&quot;font-size: 32px;&quot;&gt;Люди&lt;/span&gt;" style="ellipse;whiteSpace=wrap;html=1;aspect=fixed;fillColor=#006633;strokeColor=none;fontFamily=Montserrat;fontSource=https%3A%2F%2Ffonts.googleapis.com%2Fcss%3Ffamily%3DMontserrat;fontSize=44;fontColor=#FFFFFF;fontStyle=1" vertex="1" parent="1">
          <mxGeometry x="270" y="-50" width="600" height="600" as="geometry" />
        </mxCell>
        <mxCell id="PK9UF2O47_-60o2HS9_3-1546" value="&lt;font style=&quot;font-size: 66px;&quot;&gt;Admin&lt;br style=&quot;&quot;&gt;&lt;/font&gt;&lt;font style=&quot;font-size: 28px;&quot;&gt;Администраторы&lt;/font&gt;" style="ellipse;whiteSpace=wrap;html=1;aspect=fixed;fillColor=#00994D;strokeColor=none;fontFamily=Montserrat;fontSource=https%3A%2F%2Ffonts.googleapis.com%2Fcss%3Ffamily%3DMontserrat;fontSize=44;fontColor=#FFFFFF;fontStyle=1" vertex="1" parent="1">
          <mxGeometry x="410" y="-660" width="480" height="480" as="geometry" />
        </mxCell>
        <mxCell id="PK9UF2O47_-60o2HS9_3-1548" value="&lt;font style=&quot;font-size: 66px;&quot;&gt;Employee&lt;br style=&quot;&quot;&gt;&lt;/font&gt;&lt;span style=&quot;font-size: 28px;&quot;&gt;Сотрудники&lt;/span&gt;" style="ellipse;whiteSpace=wrap;html=1;aspect=fixed;fillColor=#00994D;strokeColor=none;fontFamily=Montserrat;fontSource=https%3A%2F%2Ffonts.googleapis.com%2Fcss%3Ffamily%3DMontserrat;fontSize=44;fontColor=#FFFFFF;fontStyle=1" vertex="1" parent="1">
          <mxGeometry x="-1340" y="-1360" width="480" height="480" as="geometry" />
        </mxCell>
        <mxCell id="PK9UF2O47_-60o2HS9_3-1549" value="&lt;font style=&quot;font-size: 66px;&quot;&gt;Customer&lt;br style=&quot;&quot;&gt;&lt;/font&gt;&lt;font style=&quot;font-size: 28px;&quot;&gt;Клиенты&lt;/font&gt;" style="ellipse;whiteSpace=wrap;html=1;aspect=fixed;fillColor=#00994D;strokeColor=none;fontFamily=Montserrat;fontSource=https%3A%2F%2Ffonts.googleapis.com%2Fcss%3Ffamily%3DMontserrat;fontSize=44;fontColor=#FFFFFF;fontStyle=1" vertex="1" parent="1">
          <mxGeometry x="-350" y="100" width="480" height="480" as="geometry" />
        </mxCell>
        <mxCell id="PK9UF2O47_-60o2HS9_3-1551" value="" style="endArrow=none;html=1;rounded=0;strokeWidth=6;strokeColor=#006633;" edge="1" parent="1" source="PK9UF2O47_-60o2HS9_3-1549" target="PK9UF2O47_-60o2HS9_3-1542">
          <mxGeometry width="50" height="50" relative="1" as="geometry">
            <mxPoint x="240" y="20" as="sourcePoint" />
            <mxPoint x="290" y="-30" as="targetPoint" />
          </mxGeometry>
        </mxCell>
        <mxCell id="PK9UF2O47_-60o2HS9_3-1552" value="" style="endArrow=none;html=1;rounded=0;strokeWidth=6;strokeColor=#006633;" edge="1" parent="1" source="PK9UF2O47_-60o2HS9_3-1548" target="PK9UF2O47_-60o2HS9_3-1542">
          <mxGeometry width="50" height="50" relative="1" as="geometry">
            <mxPoint x="-61" y="209" as="sourcePoint" />
            <mxPoint x="281" y="236" as="targetPoint" />
          </mxGeometry>
        </mxCell>
        <mxCell id="PK9UF2O47_-60o2HS9_3-1553" value="" style="endArrow=none;html=1;rounded=0;strokeWidth=6;strokeColor=#006633;" edge="1" parent="1" source="PK9UF2O47_-60o2HS9_3-1546" target="PK9UF2O47_-60o2HS9_3-1542">
          <mxGeometry width="50" height="50" relative="1" as="geometry">
            <mxPoint x="129" y="-190" as="sourcePoint" />
            <mxPoint x="367" y="48" as="targetPoint" />
          </mxGeometry>
        </mxCell>
        <mxCell id="PK9UF2O47_-60o2HS9_3-1554" value="&lt;font style=&quot;&quot;&gt;&lt;font style=&quot;font-size: 48px;&quot;&gt;Admin&lt;/font&gt;&lt;br style=&quot;&quot;&gt;&lt;/font&gt;&lt;font style=&quot;font-size: 22px;&quot;&gt;Администратор&lt;/font&gt;" style="ellipse;whiteSpace=wrap;html=1;aspect=fixed;fillColor=#00CC66;strokeColor=none;fontFamily=Montserrat;fontSource=https%3A%2F%2Ffonts.googleapis.com%2Fcss%3Ffamily%3DMontserrat;fontSize=44;fontColor=#FFFFFF;fontStyle=1" vertex="1" parent="1">
          <mxGeometry x="230" y="-1090" width="360" height="360" as="geometry" />
        </mxCell>
        <mxCell id="PK9UF2O47_-60o2HS9_3-1555" value="&lt;font style=&quot;&quot;&gt;&lt;span style=&quot;font-size: 48px;&quot;&gt;Root&lt;/span&gt;&lt;br style=&quot;&quot;&gt;&lt;/font&gt;&lt;font style=&quot;font-size: 22px;&quot;&gt;Суперпользователь&lt;/font&gt;" style="ellipse;whiteSpace=wrap;html=1;aspect=fixed;fillColor=#00CC66;strokeColor=none;fontFamily=Montserrat;fontSource=https%3A%2F%2Ffonts.googleapis.com%2Fcss%3Ffamily%3DMontserrat;fontSize=44;fontColor=#FFFFFF;fontStyle=1" vertex="1" parent="1">
          <mxGeometry x="750" y="-1090" width="360" height="360" as="geometry" />
        </mxCell>
        <mxCell id="PK9UF2O47_-60o2HS9_3-1556" value="" style="endArrow=none;html=1;rounded=0;strokeWidth=6;strokeColor=#00994D;" edge="1" parent="1" source="PK9UF2O47_-60o2HS9_3-1546" target="PK9UF2O47_-60o2HS9_3-1555">
          <mxGeometry width="50" height="50" relative="1" as="geometry">
            <mxPoint x="557" y="-370" as="sourcePoint" />
            <mxPoint x="570" y="-40" as="targetPoint" />
          </mxGeometry>
        </mxCell>
        <mxCell id="PK9UF2O47_-60o2HS9_3-1557" value="" style="endArrow=none;html=1;rounded=0;strokeWidth=6;strokeColor=#00994D;" edge="1" parent="1" source="PK9UF2O47_-60o2HS9_3-1546" target="PK9UF2O47_-60o2HS9_3-1554">
          <mxGeometry width="50" height="50" relative="1" as="geometry">
            <mxPoint x="644" y="-831" as="sourcePoint" />
            <mxPoint x="719" y="-1005" as="targetPoint" />
          </mxGeometry>
        </mxCell>
        <mxCell id="PK9UF2O47_-60o2HS9_3-1558" value="&lt;font style=&quot;&quot;&gt;&lt;font style=&quot;font-size: 48px;&quot;&gt;SAdmin&lt;/font&gt;&lt;br style=&quot;&quot;&gt;&lt;/font&gt;&lt;span style=&quot;font-size: 22px;&quot;&gt;Менеджер по поставкам&lt;/span&gt;" style="ellipse;whiteSpace=wrap;html=1;aspect=fixed;fillColor=#00CC66;strokeColor=none;fontFamily=Montserrat;fontSource=https%3A%2F%2Ffonts.googleapis.com%2Fcss%3Ffamily%3DMontserrat;fontSize=44;fontColor=#FFFFFF;fontStyle=1" vertex="1" parent="1">
          <mxGeometry x="-1300" y="-2230" width="360" height="360" as="geometry" />
        </mxCell>
        <mxCell id="PK9UF2O47_-60o2HS9_3-1560" value="&lt;font style=&quot;&quot;&gt;&lt;font style=&quot;font-size: 48px;&quot;&gt;Director&lt;/font&gt;&lt;br style=&quot;&quot;&gt;&lt;/font&gt;&lt;font style=&quot;font-size: 22px;&quot;&gt;Директор&lt;/font&gt;" style="ellipse;whiteSpace=wrap;html=1;aspect=fixed;fillColor=#00CC66;strokeColor=none;fontFamily=Montserrat;fontSource=https%3A%2F%2Ffonts.googleapis.com%2Fcss%3Ffamily%3DMontserrat;fontSize=44;fontColor=#FFFFFF;fontStyle=1" vertex="1" parent="1">
          <mxGeometry x="-720" y="-530" width="360" height="360" as="geometry" />
        </mxCell>
        <mxCell id="PK9UF2O47_-60o2HS9_3-1561" value="&lt;font style=&quot;&quot;&gt;&lt;span style=&quot;font-size: 48px;&quot;&gt;Accountant&lt;/span&gt;&lt;br style=&quot;&quot;&gt;&lt;/font&gt;&lt;font style=&quot;font-size: 22px;&quot;&gt;Бухгалтер&lt;/font&gt;" style="ellipse;whiteSpace=wrap;html=1;aspect=fixed;fillColor=#00CC66;strokeColor=none;fontFamily=Montserrat;fontSource=https%3A%2F%2Ffonts.googleapis.com%2Fcss%3Ffamily%3DMontserrat;fontSize=44;fontColor=#FFFFFF;fontStyle=1" vertex="1" parent="1">
          <mxGeometry x="-1150" y="-370" width="360" height="360" as="geometry" />
        </mxCell>
        <mxCell id="PK9UF2O47_-60o2HS9_3-1562" value="&lt;font style=&quot;&quot;&gt;&lt;span style=&quot;font-size: 48px;&quot;&gt;Waiter&lt;/span&gt;&lt;br style=&quot;&quot;&gt;&lt;/font&gt;&lt;span style=&quot;font-size: 22px;&quot;&gt;Официант&lt;/span&gt;" style="ellipse;whiteSpace=wrap;html=1;aspect=fixed;fillColor=#00CC66;strokeColor=none;fontFamily=Montserrat;fontSource=https%3A%2F%2Ffonts.googleapis.com%2Fcss%3Ffamily%3DMontserrat;fontSize=44;fontColor=#FFFFFF;fontStyle=1" vertex="1" parent="1">
          <mxGeometry x="-1570" y="-420" width="360" height="360" as="geometry" />
        </mxCell>
        <mxCell id="PK9UF2O47_-60o2HS9_3-1563" value="&lt;font style=&quot;&quot;&gt;&lt;span style=&quot;font-size: 48px;&quot;&gt;Deliveryman&lt;/span&gt;&lt;br style=&quot;&quot;&gt;&lt;/font&gt;&lt;font style=&quot;font-size: 22px;&quot;&gt;Курьер&lt;/font&gt;" style="ellipse;whiteSpace=wrap;html=1;aspect=fixed;fillColor=#00CC66;strokeColor=none;fontFamily=Montserrat;fontSource=https%3A%2F%2Ffonts.googleapis.com%2Fcss%3Ffamily%3DMontserrat;fontSize=44;fontColor=#FFFFFF;fontStyle=1" vertex="1" parent="1">
          <mxGeometry x="-1950" y="-640" width="360" height="360" as="geometry" />
        </mxCell>
        <mxCell id="PK9UF2O47_-60o2HS9_3-1564" value="&lt;font style=&quot;font-size: 48px;&quot;&gt;Cook&lt;br&gt;&lt;/font&gt;&lt;span style=&quot;font-size: 22px;&quot;&gt;Повар&lt;/span&gt;" style="ellipse;whiteSpace=wrap;html=1;aspect=fixed;fillColor=#00CC66;strokeColor=none;fontFamily=Montserrat;fontSource=https%3A%2F%2Ffonts.googleapis.com%2Fcss%3Ffamily%3DMontserrat;fontSize=44;fontColor=#FFFFFF;fontStyle=1" vertex="1" parent="1">
          <mxGeometry x="-2203" y="-990" width="360" height="360" as="geometry" />
        </mxCell>
        <mxCell id="PK9UF2O47_-60o2HS9_3-1565" value="&lt;font style=&quot;&quot;&gt;&lt;span style=&quot;font-size: 48px;&quot;&gt;Bartender&lt;/span&gt;&lt;br style=&quot;&quot;&gt;&lt;/font&gt;&lt;font style=&quot;font-size: 22px;&quot;&gt;Бармен&lt;/font&gt;" style="ellipse;whiteSpace=wrap;html=1;aspect=fixed;fillColor=#00CC66;strokeColor=none;fontFamily=Montserrat;fontSource=https%3A%2F%2Ffonts.googleapis.com%2Fcss%3Ffamily%3DMontserrat;fontSize=44;fontColor=#FFFFFF;fontStyle=1" vertex="1" parent="1">
          <mxGeometry x="-2250" y="-1430" width="360" height="360" as="geometry" />
        </mxCell>
        <mxCell id="PK9UF2O47_-60o2HS9_3-1566" value="&lt;font style=&quot;&quot;&gt;&lt;font style=&quot;font-size: 48px;&quot;&gt;Barista&lt;/font&gt;&lt;br style=&quot;&quot;&gt;&lt;/font&gt;&lt;span style=&quot;font-size: 22px;&quot;&gt;Бариста&lt;/span&gt;" style="ellipse;whiteSpace=wrap;html=1;aspect=fixed;fillColor=#00CC66;strokeColor=none;fontFamily=Montserrat;fontSource=https%3A%2F%2Ffonts.googleapis.com%2Fcss%3Ffamily%3DMontserrat;fontSize=44;fontColor=#FFFFFF;fontStyle=1" vertex="1" parent="1">
          <mxGeometry x="-2100" y="-1860" width="360" height="360" as="geometry" />
        </mxCell>
        <mxCell id="PK9UF2O47_-60o2HS9_3-1567" value="&lt;font style=&quot;&quot;&gt;&lt;font style=&quot;font-size: 48px;&quot;&gt;KAdmin&lt;/font&gt;&lt;br style=&quot;&quot;&gt;&lt;/font&gt;&lt;span style=&quot;font-size: 22px;&quot;&gt;Менеджер кухни&lt;br&gt;(шеф-повар)&lt;/span&gt;" style="ellipse;whiteSpace=wrap;html=1;aspect=fixed;fillColor=#00CC66;strokeColor=none;fontFamily=Montserrat;fontSource=https%3A%2F%2Ffonts.googleapis.com%2Fcss%3Ffamily%3DMontserrat;fontSize=44;fontColor=#FFFFFF;fontStyle=1" vertex="1" parent="1">
          <mxGeometry x="-1730" y="-2140" width="360" height="360" as="geometry" />
        </mxCell>
        <mxCell id="PK9UF2O47_-60o2HS9_3-1568" value="&lt;font style=&quot;&quot;&gt;&lt;font style=&quot;font-size: 48px;&quot;&gt;HAdmin&lt;/font&gt;&lt;br style=&quot;&quot;&gt;&lt;/font&gt;&lt;font style=&quot;font-size: 22px;&quot;&gt;&amp;nbsp; Администратор зала&lt;/font&gt;" style="ellipse;whiteSpace=wrap;html=1;aspect=fixed;fillColor=#00CC66;strokeColor=none;fontFamily=Montserrat;fontSource=https%3A%2F%2Ffonts.googleapis.com%2Fcss%3Ffamily%3DMontserrat;fontSize=44;fontColor=#FFFFFF;fontStyle=1" vertex="1" parent="1">
          <mxGeometry x="-854" y="-2160" width="360" height="360" as="geometry" />
        </mxCell>
        <mxCell id="PK9UF2O47_-60o2HS9_3-1569" value="&lt;font style=&quot;&quot;&gt;&lt;font style=&quot;font-size: 48px;&quot;&gt;RAdmin&lt;/font&gt;&lt;br style=&quot;&quot;&gt;&lt;/font&gt;&lt;font style=&quot;font-size: 22px;&quot;&gt;&amp;nbsp; Администратор ресторана&lt;/font&gt;" style="ellipse;whiteSpace=wrap;html=1;aspect=fixed;fillColor=#00CC66;strokeColor=none;fontFamily=Montserrat;fontSource=https%3A%2F%2Ffonts.googleapis.com%2Fcss%3Ffamily%3DMontserrat;fontSize=44;fontColor=#FFFFFF;fontStyle=1" vertex="1" parent="1">
          <mxGeometry x="-530" y="-1830" width="360" height="360" as="geometry" />
        </mxCell>
        <mxCell id="PK9UF2O47_-60o2HS9_3-1570" value="&lt;font style=&quot;font-size: 48px;&quot;&gt;Cashier&lt;br&gt;&lt;/font&gt;&lt;font style=&quot;font-size: 22px;&quot;&gt;&amp;nbsp;Кассир&lt;/font&gt;" style="ellipse;whiteSpace=wrap;html=1;aspect=fixed;fillColor=#00CC66;strokeColor=none;fontFamily=Montserrat;fontSource=https%3A%2F%2Ffonts.googleapis.com%2Fcss%3Ffamily%3DMontserrat;fontSize=44;fontColor=#FFFFFF;fontStyle=1" vertex="1" parent="1">
          <mxGeometry x="-360" y="-1380" width="360" height="360" as="geometry" />
        </mxCell>
        <mxCell id="PK9UF2O47_-60o2HS9_3-1571" value="&lt;font style=&quot;font-size: 48px;&quot;&gt;CAdmin&lt;br&gt;&lt;/font&gt;&lt;span style=&quot;font-size: 22px;&quot;&gt;Старший кассир&lt;/span&gt;" style="ellipse;whiteSpace=wrap;html=1;aspect=fixed;fillColor=#00CC66;strokeColor=none;fontFamily=Montserrat;fontSource=https%3A%2F%2Ffonts.googleapis.com%2Fcss%3Ffamily%3DMontserrat;fontSize=44;fontColor=#FFFFFF;fontStyle=1" vertex="1" parent="1">
          <mxGeometry x="-420" y="-930" width="360" height="360" as="geometry" />
        </mxCell>
        <mxCell id="PK9UF2O47_-60o2HS9_3-1572" value="" style="endArrow=none;html=1;rounded=0;strokeWidth=6;strokeColor=#00994D;" edge="1" parent="1" source="PK9UF2O47_-60o2HS9_3-1548" target="PK9UF2O47_-60o2HS9_3-1560">
          <mxGeometry width="50" height="50" relative="1" as="geometry">
            <mxPoint x="-1930" y="-1410" as="sourcePoint" />
            <mxPoint x="-678" y="-382" as="targetPoint" />
          </mxGeometry>
        </mxCell>
        <mxCell id="PK9UF2O47_-60o2HS9_3-1575" value="" style="endArrow=none;html=1;rounded=0;strokeWidth=6;strokeColor=#00994D;" edge="1" parent="1" source="PK9UF2O47_-60o2HS9_3-1548" target="PK9UF2O47_-60o2HS9_3-1570">
          <mxGeometry width="50" height="50" relative="1" as="geometry">
            <mxPoint x="-930" y="-895" as="sourcePoint" />
            <mxPoint x="-615" y="-456" as="targetPoint" />
          </mxGeometry>
        </mxCell>
        <mxCell id="PK9UF2O47_-60o2HS9_3-1576" value="" style="endArrow=none;html=1;rounded=0;strokeWidth=6;strokeColor=#00994D;" edge="1" parent="1" source="PK9UF2O47_-60o2HS9_3-1548" target="PK9UF2O47_-60o2HS9_3-1571">
          <mxGeometry width="50" height="50" relative="1" as="geometry">
            <mxPoint x="-920" y="-885" as="sourcePoint" />
            <mxPoint x="-605" y="-446" as="targetPoint" />
          </mxGeometry>
        </mxCell>
        <mxCell id="PK9UF2O47_-60o2HS9_3-1577" value="" style="endArrow=none;html=1;rounded=0;strokeWidth=6;strokeColor=#00994D;" edge="1" parent="1" source="PK9UF2O47_-60o2HS9_3-1548" target="PK9UF2O47_-60o2HS9_3-1569">
          <mxGeometry width="50" height="50" relative="1" as="geometry">
            <mxPoint x="-910" y="-875" as="sourcePoint" />
            <mxPoint x="-595" y="-436" as="targetPoint" />
          </mxGeometry>
        </mxCell>
        <mxCell id="PK9UF2O47_-60o2HS9_3-1578" value="" style="endArrow=none;html=1;rounded=0;strokeWidth=6;strokeColor=#00994D;" edge="1" parent="1" source="PK9UF2O47_-60o2HS9_3-1564" target="PK9UF2O47_-60o2HS9_3-1548">
          <mxGeometry width="50" height="50" relative="1" as="geometry">
            <mxPoint x="-900" y="-865" as="sourcePoint" />
            <mxPoint x="-585" y="-426" as="targetPoint" />
          </mxGeometry>
        </mxCell>
        <mxCell id="PK9UF2O47_-60o2HS9_3-1579" value="" style="endArrow=none;html=1;rounded=0;strokeWidth=6;strokeColor=#00994D;" edge="1" parent="1" source="PK9UF2O47_-60o2HS9_3-1548" target="PK9UF2O47_-60o2HS9_3-1568">
          <mxGeometry width="50" height="50" relative="1" as="geometry">
            <mxPoint x="-890" y="-855" as="sourcePoint" />
            <mxPoint x="-575" y="-416" as="targetPoint" />
          </mxGeometry>
        </mxCell>
        <mxCell id="PK9UF2O47_-60o2HS9_3-1580" value="" style="endArrow=none;html=1;rounded=0;strokeWidth=6;strokeColor=#00994D;" edge="1" parent="1" source="PK9UF2O47_-60o2HS9_3-1548" target="PK9UF2O47_-60o2HS9_3-1558">
          <mxGeometry width="50" height="50" relative="1" as="geometry">
            <mxPoint x="-880" y="-845" as="sourcePoint" />
            <mxPoint x="-565" y="-406" as="targetPoint" />
          </mxGeometry>
        </mxCell>
        <mxCell id="PK9UF2O47_-60o2HS9_3-1581" value="" style="endArrow=none;html=1;rounded=0;strokeWidth=6;strokeColor=#00994D;" edge="1" parent="1" source="PK9UF2O47_-60o2HS9_3-1548" target="PK9UF2O47_-60o2HS9_3-1567">
          <mxGeometry width="50" height="50" relative="1" as="geometry">
            <mxPoint x="-870" y="-835" as="sourcePoint" />
            <mxPoint x="-555" y="-396" as="targetPoint" />
          </mxGeometry>
        </mxCell>
        <mxCell id="PK9UF2O47_-60o2HS9_3-1582" value="" style="endArrow=none;html=1;rounded=0;strokeWidth=6;strokeColor=#00994D;" edge="1" parent="1" source="PK9UF2O47_-60o2HS9_3-1566" target="PK9UF2O47_-60o2HS9_3-1548">
          <mxGeometry width="50" height="50" relative="1" as="geometry">
            <mxPoint x="-860" y="-825" as="sourcePoint" />
            <mxPoint x="-545" y="-386" as="targetPoint" />
          </mxGeometry>
        </mxCell>
        <mxCell id="PK9UF2O47_-60o2HS9_3-1583" value="" style="endArrow=none;html=1;rounded=0;strokeWidth=6;strokeColor=#00994D;" edge="1" parent="1" source="PK9UF2O47_-60o2HS9_3-1565" target="PK9UF2O47_-60o2HS9_3-1548">
          <mxGeometry width="50" height="50" relative="1" as="geometry">
            <mxPoint x="-850" y="-815" as="sourcePoint" />
            <mxPoint x="-535" y="-376" as="targetPoint" />
          </mxGeometry>
        </mxCell>
        <mxCell id="PK9UF2O47_-60o2HS9_3-1584" value="" style="endArrow=none;html=1;rounded=0;strokeWidth=6;strokeColor=#00994D;" edge="1" parent="1" source="PK9UF2O47_-60o2HS9_3-1563" target="PK9UF2O47_-60o2HS9_3-1548">
          <mxGeometry width="50" height="50" relative="1" as="geometry">
            <mxPoint x="-840" y="-805" as="sourcePoint" />
            <mxPoint x="-525" y="-366" as="targetPoint" />
          </mxGeometry>
        </mxCell>
        <mxCell id="PK9UF2O47_-60o2HS9_3-1585" value="" style="endArrow=none;html=1;rounded=0;strokeWidth=6;strokeColor=#00994D;" edge="1" parent="1" source="PK9UF2O47_-60o2HS9_3-1562" target="PK9UF2O47_-60o2HS9_3-1548">
          <mxGeometry width="50" height="50" relative="1" as="geometry">
            <mxPoint x="-830" y="-795" as="sourcePoint" />
            <mxPoint x="-515" y="-356" as="targetPoint" />
          </mxGeometry>
        </mxCell>
        <mxCell id="PK9UF2O47_-60o2HS9_3-1586" value="" style="endArrow=none;html=1;rounded=0;strokeWidth=6;strokeColor=#00994D;" edge="1" parent="1" source="PK9UF2O47_-60o2HS9_3-1561" target="PK9UF2O47_-60o2HS9_3-1548">
          <mxGeometry width="50" height="50" relative="1" as="geometry">
            <mxPoint x="-820" y="-785" as="sourcePoint" />
            <mxPoint x="-505" y="-346" as="targetPoint" />
          </mxGeometry>
        </mxCell>
        <mxCell id="PK9UF2O47_-60o2HS9_3-1591" value="&lt;font style=&quot;font-size: 96px;&quot;&gt;Actor&lt;br style=&quot;&quot;&gt;&lt;/font&gt;&lt;font style=&quot;font-size: 32px;&quot;&gt;Действующие лица&lt;/font&gt;" style="ellipse;whiteSpace=wrap;html=1;aspect=fixed;fillColor=#00331A;strokeColor=none;fontFamily=Montserrat;fontSource=https%3A%2F%2Ffonts.googleapis.com%2Fcss%3Ffamily%3DMontserrat;fontSize=44;fontColor=#FFFFFF;fontStyle=1" vertex="1" parent="1">
          <mxGeometry x="890" y="510" width="720" height="720" as="geometry" />
        </mxCell>
        <mxCell id="PK9UF2O47_-60o2HS9_3-1592" value="&lt;span style=&quot;font-size: 96px;&quot;&gt;Default&lt;br&gt;Actor&lt;br&gt;&lt;/span&gt;&lt;span style=&quot;font-size: 32px;&quot;&gt;Программы&lt;/span&gt;" style="ellipse;whiteSpace=wrap;html=1;aspect=fixed;fillColor=#006633;strokeColor=none;fontFamily=Montserrat;fontSource=https%3A%2F%2Ffonts.googleapis.com%2Fcss%3Ffamily%3DMontserrat;fontSize=44;fontColor=#FFFFFF;fontStyle=1" vertex="1" parent="1">
          <mxGeometry x="40" y="1040" width="600" height="600" as="geometry" />
        </mxCell>
        <mxCell id="PK9UF2O47_-60o2HS9_3-1593" value="" style="endArrow=none;html=1;rounded=0;strokeWidth=6;strokeColor=#00331A;" edge="1" parent="1" source="PK9UF2O47_-60o2HS9_3-1542" target="PK9UF2O47_-60o2HS9_3-1591">
          <mxGeometry width="50" height="50" relative="1" as="geometry">
            <mxPoint x="-904" y="-958" as="sourcePoint" />
            <mxPoint x="348" y="70" as="targetPoint" />
          </mxGeometry>
        </mxCell>
        <mxCell id="PK9UF2O47_-60o2HS9_3-1594" value="" style="endArrow=none;html=1;rounded=0;strokeWidth=6;strokeColor=#00331A;" edge="1" parent="1" source="PK9UF2O47_-60o2HS9_3-1592" target="PK9UF2O47_-60o2HS9_3-1591">
          <mxGeometry width="50" height="50" relative="1" as="geometry">
            <mxPoint x="805" y="458" as="sourcePoint" />
            <mxPoint x="1101" y="717" as="targetPoint" />
          </mxGeometry>
        </mxCell>
        <mxCell id="PK9UF2O47_-60o2HS9_3-1595" value="&lt;font style=&quot;font-size: 66px;&quot;&gt;SYSTEM&lt;br&gt;&lt;/font&gt;&lt;span style=&quot;font-size: 28px;&quot;&gt;Глобальный сервер&lt;/span&gt;" style="ellipse;whiteSpace=wrap;html=1;aspect=fixed;fillColor=#00994D;strokeColor=none;fontFamily=Montserrat;fontSource=https%3A%2F%2Ffonts.googleapis.com%2Fcss%3Ffamily%3DMontserrat;fontSize=44;fontColor=#FFFFFF;fontStyle=1" vertex="1" parent="1">
          <mxGeometry x="-580" y="980" width="480" height="480" as="geometry" />
        </mxCell>
        <mxCell id="PK9UF2O47_-60o2HS9_3-1596" value="&lt;span style=&quot;font-size: 66px;&quot;&gt;LOCAL&lt;br&gt;&lt;/span&gt;&lt;span style=&quot;font-size: 28px;&quot;&gt;Сервер ресторана&lt;/span&gt;" style="ellipse;whiteSpace=wrap;html=1;aspect=fixed;fillColor=#00994D;strokeColor=none;fontFamily=Montserrat;fontSource=https%3A%2F%2Ffonts.googleapis.com%2Fcss%3Ffamily%3DMontserrat;fontSize=44;fontColor=#FFFFFF;fontStyle=1" vertex="1" parent="1">
          <mxGeometry x="-280" y="1690" width="480" height="480" as="geometry" />
        </mxCell>
        <mxCell id="PK9UF2O47_-60o2HS9_3-1597" value="" style="endArrow=none;html=1;rounded=0;strokeWidth=6;strokeColor=#006633;" edge="1" parent="1" source="PK9UF2O47_-60o2HS9_3-1595" target="PK9UF2O47_-60o2HS9_3-1592">
          <mxGeometry width="50" height="50" relative="1" as="geometry">
            <mxPoint x="138" y="319" as="sourcePoint" />
            <mxPoint x="283" y="299" as="targetPoint" />
          </mxGeometry>
        </mxCell>
        <mxCell id="PK9UF2O47_-60o2HS9_3-1598" value="" style="endArrow=none;html=1;rounded=0;strokeWidth=6;strokeColor=#006633;" edge="1" parent="1" source="PK9UF2O47_-60o2HS9_3-1596" target="PK9UF2O47_-60o2HS9_3-1592">
          <mxGeometry width="50" height="50" relative="1" as="geometry">
            <mxPoint x="-110" y="1315" as="sourcePoint" />
            <mxPoint x="51" y="1329" as="targetPoint" />
          </mxGeometry>
        </mxCell>
        <mxCell id="PK9UF2O47_-60o2HS9_3-1601" value="&lt;font style=&quot;&quot;&gt;&lt;span style=&quot;font-size: 48px;&quot;&gt;Kitchen&lt;/span&gt;&lt;br style=&quot;&quot;&gt;&lt;/font&gt;&lt;font style=&quot;font-size: 22px;&quot;&gt;Производство&lt;/font&gt;" style="ellipse;whiteSpace=wrap;html=1;aspect=fixed;fillColor=#00CC66;strokeColor=none;fontFamily=Montserrat;fontSource=https%3A%2F%2Ffonts.googleapis.com%2Fcss%3Ffamily%3DMontserrat;fontSize=44;fontColor=#FFFFFF;fontStyle=1" vertex="1" parent="1">
          <mxGeometry x="-960" y="1710" width="360" height="360" as="geometry" />
        </mxCell>
        <mxCell id="PK9UF2O47_-60o2HS9_3-1602" value="&lt;font style=&quot;font-size: 48px;&quot;&gt;HR&lt;br&gt;Department&lt;br&gt;&lt;/font&gt;&lt;font style=&quot;font-size: 22px;&quot;&gt;Отдел кадров&lt;/font&gt;" style="ellipse;whiteSpace=wrap;html=1;aspect=fixed;fillColor=#00CC66;strokeColor=none;fontFamily=Montserrat;fontSource=https%3A%2F%2Ffonts.googleapis.com%2Fcss%3Ffamily%3DMontserrat;fontSize=44;fontColor=#FFFFFF;fontStyle=1" vertex="1" parent="1">
          <mxGeometry x="-640" y="2170" width="360" height="360" as="geometry" />
        </mxCell>
        <mxCell id="PK9UF2O47_-60o2HS9_3-1603" value="&lt;font style=&quot;font-size: 48px;&quot;&gt;Stock&lt;br&gt;&lt;/font&gt;&lt;font style=&quot;font-size: 22px;&quot;&gt;Склад&lt;/font&gt;" style="ellipse;whiteSpace=wrap;html=1;aspect=fixed;fillColor=#00CC66;strokeColor=none;fontFamily=Montserrat;fontSource=https%3A%2F%2Ffonts.googleapis.com%2Fcss%3Ffamily%3DMontserrat;fontSize=44;fontColor=#FFFFFF;fontStyle=1" vertex="1" parent="1">
          <mxGeometry x="-140" y="2300" width="360" height="360" as="geometry" />
        </mxCell>
        <mxCell id="PK9UF2O47_-60o2HS9_3-1604" value="" style="endArrow=none;html=1;rounded=0;strokeWidth=6;strokeColor=#00994D;" edge="1" parent="1" source="PK9UF2O47_-60o2HS9_3-1596" target="PK9UF2O47_-60o2HS9_3-1601">
          <mxGeometry width="50" height="50" relative="1" as="geometry">
            <mxPoint x="-985" y="-358" as="sourcePoint" />
            <mxPoint x="-1057" y="-872" as="targetPoint" />
          </mxGeometry>
        </mxCell>
        <mxCell id="PK9UF2O47_-60o2HS9_3-1605" value="" style="endArrow=none;html=1;rounded=0;strokeWidth=6;strokeColor=#00994D;" edge="1" parent="1" source="PK9UF2O47_-60o2HS9_3-1596" target="PK9UF2O47_-60o2HS9_3-1602">
          <mxGeometry width="50" height="50" relative="1" as="geometry">
            <mxPoint x="-270" y="1933" as="sourcePoint" />
            <mxPoint x="-430" y="1926" as="targetPoint" />
          </mxGeometry>
        </mxCell>
        <mxCell id="PK9UF2O47_-60o2HS9_3-1606" value="" style="endArrow=none;html=1;rounded=0;strokeWidth=6;strokeColor=#00994D;" edge="1" parent="1" source="PK9UF2O47_-60o2HS9_3-1596" target="PK9UF2O47_-60o2HS9_3-1603">
          <mxGeometry width="50" height="50" relative="1" as="geometry">
            <mxPoint x="-260" y="1943" as="sourcePoint" />
            <mxPoint x="-420" y="1936" as="targetPoint" />
          </mxGeometry>
        </mxCell>
        <mxCell id="PK9UF2O47_-60o2HS9_3-1608" value="&lt;p style=&quot;line-height: 70%;&quot;&gt;&lt;font style=&quot;&quot;&gt;&lt;font style=&quot;font-size: 36px;&quot;&gt;HotShop&lt;br&gt;&lt;/font&gt;&lt;/font&gt;&lt;font style=&quot;font-size: 16px;&quot;&gt;Горячий цех&lt;/font&gt;&lt;/p&gt;" style="ellipse;whiteSpace=wrap;html=1;aspect=fixed;fillColor=#50F286;strokeColor=none;fontFamily=Montserrat;fontSource=https%3A%2F%2Ffonts.googleapis.com%2Fcss%3Ffamily%3DMontserrat;fontSize=44;fontColor=#00994D;fontStyle=1" vertex="1" parent="1">
          <mxGeometry x="-900" y="1390" width="240" height="240" as="geometry" />
        </mxCell>
        <mxCell id="PK9UF2O47_-60o2HS9_3-1609" value="&lt;p style=&quot;line-height: 70%;&quot;&gt;&lt;font style=&quot;&quot;&gt;&lt;font style=&quot;font-size: 36px;&quot;&gt;ColdShop&lt;br&gt;&lt;/font&gt;&lt;/font&gt;&lt;span style=&quot;font-size: 16px;&quot;&gt;Холодный цех&lt;/span&gt;&lt;/p&gt;" style="ellipse;whiteSpace=wrap;html=1;aspect=fixed;fillColor=#50F286;strokeColor=none;fontFamily=Montserrat;fontSource=https%3A%2F%2Ffonts.googleapis.com%2Fcss%3Ffamily%3DMontserrat;fontSize=44;fontColor=#00994D;fontStyle=1" vertex="1" parent="1">
          <mxGeometry x="-1203" y="1560" width="240" height="240" as="geometry" />
        </mxCell>
        <mxCell id="PK9UF2O47_-60o2HS9_3-1610" value="&lt;p style=&quot;line-height: 70%;&quot;&gt;&lt;font style=&quot;&quot;&gt;&lt;font style=&quot;font-size: 36px;&quot;&gt;Bar&lt;br&gt;&lt;/font&gt;&lt;/font&gt;&lt;span style=&quot;font-size: 16px;&quot;&gt;Бар&lt;/span&gt;&lt;/p&gt;" style="ellipse;whiteSpace=wrap;html=1;aspect=fixed;fillColor=#50F286;strokeColor=none;fontFamily=Montserrat;fontSource=https%3A%2F%2Ffonts.googleapis.com%2Fcss%3Ffamily%3DMontserrat;fontSize=44;fontColor=#00994D;fontStyle=1" vertex="1" parent="1">
          <mxGeometry x="-1280" y="1830" width="240" height="240" as="geometry" />
        </mxCell>
        <mxCell id="PK9UF2O47_-60o2HS9_3-1611" value="&lt;p style=&quot;line-height: 70%;&quot;&gt;&lt;font style=&quot;&quot;&gt;&lt;font style=&quot;font-size: 36px;&quot;&gt;Cafe&lt;br&gt;&lt;/font&gt;&lt;/font&gt;&lt;font style=&quot;font-size: 16px;&quot;&gt;Кафе&lt;/font&gt;&lt;/p&gt;" style="ellipse;whiteSpace=wrap;html=1;aspect=fixed;fillColor=#50F286;strokeColor=none;fontFamily=Montserrat;fontSource=https%3A%2F%2Ffonts.googleapis.com%2Fcss%3Ffamily%3DMontserrat;fontSize=44;fontColor=#00994D;fontStyle=1" vertex="1" parent="1">
          <mxGeometry x="-1110" y="2090" width="240" height="240" as="geometry" />
        </mxCell>
        <mxCell id="PK9UF2O47_-60o2HS9_3-1612" value="" style="endArrow=none;html=1;rounded=0;strokeWidth=6;strokeColor=#00CC66;" edge="1" parent="1" source="PK9UF2O47_-60o2HS9_3-1611" target="PK9UF2O47_-60o2HS9_3-1601">
          <mxGeometry width="50" height="50" relative="1" as="geometry">
            <mxPoint x="-270" y="1927" as="sourcePoint" />
            <mxPoint x="-590" y="1910" as="targetPoint" />
          </mxGeometry>
        </mxCell>
        <mxCell id="PK9UF2O47_-60o2HS9_3-1613" value="" style="endArrow=none;html=1;rounded=0;strokeWidth=6;strokeColor=#00CC66;" edge="1" parent="1" source="PK9UF2O47_-60o2HS9_3-1610" target="PK9UF2O47_-60o2HS9_3-1601">
          <mxGeometry width="50" height="50" relative="1" as="geometry">
            <mxPoint x="-911" y="2102" as="sourcePoint" />
            <mxPoint x="-873" y="2047" as="targetPoint" />
          </mxGeometry>
        </mxCell>
        <mxCell id="PK9UF2O47_-60o2HS9_3-1614" value="" style="endArrow=none;html=1;rounded=0;strokeWidth=6;strokeColor=#00CC66;" edge="1" parent="1" source="PK9UF2O47_-60o2HS9_3-1609" target="PK9UF2O47_-60o2HS9_3-1601">
          <mxGeometry width="50" height="50" relative="1" as="geometry">
            <mxPoint x="-1031" y="1941" as="sourcePoint" />
            <mxPoint x="-948" y="1928" as="targetPoint" />
          </mxGeometry>
        </mxCell>
        <mxCell id="PK9UF2O47_-60o2HS9_3-1615" value="" style="endArrow=none;html=1;rounded=0;strokeWidth=6;strokeColor=#00CC66;" edge="1" parent="1" source="PK9UF2O47_-60o2HS9_3-1608" target="PK9UF2O47_-60o2HS9_3-1601">
          <mxGeometry width="50" height="50" relative="1" as="geometry">
            <mxPoint x="-982" y="1750" as="sourcePoint" />
            <mxPoint x="-917" y="1796" as="targetPoint" />
          </mxGeometry>
        </mxCell>
        <mxCell id="PK9UF2O47_-60o2HS9_3-1616" value="&lt;font style=&quot;font-size: 96px;&quot;&gt;Item&lt;br&gt;&lt;/font&gt;&lt;span style=&quot;font-size: 32px;&quot;&gt;Предметы&lt;/span&gt;" style="ellipse;whiteSpace=wrap;html=1;aspect=fixed;fillColor=#663300;strokeColor=none;fontFamily=Montserrat;fontSource=https%3A%2F%2Ffonts.googleapis.com%2Fcss%3Ffamily%3DMontserrat;fontSize=44;fontColor=#FFFFFF;fontStyle=1" vertex="1" parent="1">
          <mxGeometry x="1200" y="-504" width="720" height="720" as="geometry" />
        </mxCell>
        <mxCell id="PK9UF2O47_-60o2HS9_3-1617" value="&lt;font style=&quot;font-size: 96px;&quot;&gt;Task&lt;br style=&quot;&quot;&gt;&lt;/font&gt;&lt;font style=&quot;font-size: 32px;&quot;&gt;Ответственные задачи&lt;/font&gt;" style="ellipse;whiteSpace=wrap;html=1;aspect=fixed;fillColor=#330066;strokeColor=none;fontFamily=Montserrat;fontSource=https%3A%2F%2Ffonts.googleapis.com%2Fcss%3Ffamily%3DMontserrat;fontSize=44;fontColor=#FFFFFF;fontStyle=1" vertex="1" parent="1">
          <mxGeometry x="1810" y="600" width="720" height="720" as="geometry" />
        </mxCell>
        <mxCell id="PK9UF2O47_-60o2HS9_3-1618" value="&lt;font style=&quot;font-size: 96px;&quot;&gt;Inventory&lt;br style=&quot;&quot;&gt;&lt;/font&gt;&lt;span style=&quot;font-size: 32px;&quot;&gt;Инвентарь&lt;br&gt;&lt;/span&gt;" style="ellipse;whiteSpace=wrap;html=1;aspect=fixed;fillColor=#994C00;strokeColor=none;fontFamily=Montserrat;fontSource=https%3A%2F%2Ffonts.googleapis.com%2Fcss%3Ffamily%3DMontserrat;fontSize=44;fontColor=#FFFFFF;fontStyle=1" vertex="1" parent="1">
          <mxGeometry x="1480" y="-1655" width="600" height="600" as="geometry" />
        </mxCell>
        <mxCell id="PK9UF2O47_-60o2HS9_3-1619" value="&lt;font style=&quot;font-size: 96px;&quot;&gt;Tare&lt;br style=&quot;&quot;&gt;&lt;/font&gt;&lt;span style=&quot;font-size: 32px;&quot;&gt;Инвентарь&lt;br&gt;&lt;/span&gt;" style="ellipse;whiteSpace=wrap;html=1;aspect=fixed;fillColor=#994C00;strokeColor=none;fontFamily=Montserrat;fontSource=https%3A%2F%2Ffonts.googleapis.com%2Fcss%3Ffamily%3DMontserrat;fontSize=44;fontColor=#FFFFFF;fontStyle=1" vertex="1" parent="1">
          <mxGeometry x="2110" y="-915" width="600" height="600" as="geometry" />
        </mxCell>
        <mxCell id="PK9UF2O47_-60o2HS9_3-1620" value="&lt;font style=&quot;font-size: 96px;&quot;&gt;Material&lt;br style=&quot;&quot;&gt;&lt;/font&gt;&lt;span style=&quot;font-size: 32px;&quot;&gt;Расходники&lt;br&gt;&lt;/span&gt;" style="ellipse;whiteSpace=wrap;html=1;aspect=fixed;fillColor=#994C00;strokeColor=none;fontFamily=Montserrat;fontSource=https%3A%2F%2Ffonts.googleapis.com%2Fcss%3Ffamily%3DMontserrat;fontSize=44;fontColor=#FFFFFF;fontStyle=1" vertex="1" parent="1">
          <mxGeometry x="2210" y="-85" width="600" height="600" as="geometry" />
        </mxCell>
        <mxCell id="PK9UF2O47_-60o2HS9_3-1621" value="" style="endArrow=none;html=1;rounded=0;strokeWidth=6;strokeColor=#663300;" edge="1" parent="1" source="PK9UF2O47_-60o2HS9_3-1618" target="PK9UF2O47_-60o2HS9_3-1616">
          <mxGeometry width="50" height="50" relative="1" as="geometry">
            <mxPoint x="-1216" y="-596" as="sourcePoint" />
            <mxPoint x="-1007" y="-410" as="targetPoint" />
          </mxGeometry>
        </mxCell>
        <mxCell id="PK9UF2O47_-60o2HS9_3-1622" value="" style="endArrow=none;html=1;rounded=0;strokeWidth=6;strokeColor=#663300;" edge="1" parent="1" source="PK9UF2O47_-60o2HS9_3-1619" target="PK9UF2O47_-60o2HS9_3-1616">
          <mxGeometry width="50" height="50" relative="1" as="geometry">
            <mxPoint x="1747" y="-870" as="sourcePoint" />
            <mxPoint x="1689" y="-567" as="targetPoint" />
          </mxGeometry>
        </mxCell>
        <mxCell id="PK9UF2O47_-60o2HS9_3-1623" value="" style="endArrow=none;html=1;rounded=0;strokeWidth=6;strokeColor=#663300;" edge="1" parent="1" source="PK9UF2O47_-60o2HS9_3-1620" target="PK9UF2O47_-60o2HS9_3-1616">
          <mxGeometry width="50" height="50" relative="1" as="geometry">
            <mxPoint x="1757" y="-860" as="sourcePoint" />
            <mxPoint x="1699" y="-557" as="targetPoint" />
          </mxGeometry>
        </mxCell>
        <mxCell id="PK9UF2O47_-60o2HS9_3-1626" value="&lt;font style=&quot;font-size: 66px;&quot;&gt;Ingridient&lt;br style=&quot;&quot;&gt;&lt;/font&gt;&lt;font style=&quot;font-size: 28px;&quot;&gt;Ингридиенты&lt;/font&gt;" style="ellipse;whiteSpace=wrap;html=1;aspect=fixed;fillColor=#CC6600;strokeColor=none;fontFamily=Montserrat;fontSource=https%3A%2F%2Ffonts.googleapis.com%2Fcss%3Ffamily%3DMontserrat;fontSize=44;fontColor=#FFFFFF;fontStyle=1" vertex="1" parent="1">
          <mxGeometry x="2950" y="115" width="480" height="480" as="geometry" />
        </mxCell>
        <mxCell id="PK9UF2O47_-60o2HS9_3-1627" value="&lt;font style=&quot;&quot;&gt;&lt;span style=&quot;font-size: 48px;&quot;&gt;Product&lt;/span&gt;&lt;br style=&quot;&quot;&gt;&lt;/font&gt;&lt;font style=&quot;font-size: 22px;&quot;&gt;Товар&lt;/font&gt;" style="ellipse;whiteSpace=wrap;html=1;aspect=fixed;fillColor=#FF8000;strokeColor=none;fontFamily=Montserrat;fontSource=https%3A%2F%2Ffonts.googleapis.com%2Fcss%3Ffamily%3DMontserrat;fontSize=44;fontColor=#FFFFFF;fontStyle=1" vertex="1" parent="1">
          <mxGeometry x="3890" y="65" width="360" height="360" as="geometry" />
        </mxCell>
        <mxCell id="PK9UF2O47_-60o2HS9_3-1628" value="" style="endArrow=none;html=1;rounded=0;strokeWidth=6;strokeColor=#994C00;" edge="1" parent="1" source="PK9UF2O47_-60o2HS9_3-1620" target="PK9UF2O47_-60o2HS9_3-1626">
          <mxGeometry width="50" height="50" relative="1" as="geometry">
            <mxPoint x="2520" y="-835" as="sourcePoint" />
            <mxPoint x="1981" y="-394" as="targetPoint" />
          </mxGeometry>
        </mxCell>
        <mxCell id="PK9UF2O47_-60o2HS9_3-1629" value="" style="endArrow=none;html=1;rounded=0;strokeWidth=6;strokeColor=#CC6600;" edge="1" parent="1" source="PK9UF2O47_-60o2HS9_3-1627" target="PK9UF2O47_-60o2HS9_3-1626">
          <mxGeometry width="50" height="50" relative="1" as="geometry">
            <mxPoint x="2763" y="-1046" as="sourcePoint" />
            <mxPoint x="3100" y="-1365" as="targetPoint" />
          </mxGeometry>
        </mxCell>
        <mxCell id="PK9UF2O47_-60o2HS9_3-1631" value="&lt;p style=&quot;line-height: 70%;&quot;&gt;&lt;font style=&quot;&quot;&gt;&lt;font style=&quot;font-size: 36px;&quot;&gt;Cold Drinks&lt;br&gt;&lt;/font&gt;&lt;/font&gt;&lt;font style=&quot;font-size: 16px;&quot;&gt;Холодные напитки&lt;/font&gt;&lt;/p&gt;" style="ellipse;whiteSpace=wrap;html=1;aspect=fixed;fillColor=#FF9933;strokeColor=none;fontFamily=Montserrat;fontSource=https%3A%2F%2Ffonts.googleapis.com%2Fcss%3Ffamily%3DMontserrat;fontSize=44;fontColor=#FFFFFF;fontStyle=1" vertex="1" parent="1">
          <mxGeometry x="3580" y="385" width="240" height="240" as="geometry" />
        </mxCell>
        <mxCell id="PK9UF2O47_-60o2HS9_3-1632" value="&lt;p style=&quot;line-height: 70%;&quot;&gt;&lt;font style=&quot;&quot;&gt;&lt;font style=&quot;font-size: 36px;&quot;&gt;Hot Drinks&lt;br&gt;&lt;/font&gt;&lt;/font&gt;&lt;font style=&quot;font-size: 16px;&quot;&gt;Горячие напитки&lt;/font&gt;&lt;/p&gt;" style="ellipse;whiteSpace=wrap;html=1;aspect=fixed;fillColor=#FF9933;strokeColor=none;fontFamily=Montserrat;fontSource=https%3A%2F%2Ffonts.googleapis.com%2Fcss%3Ffamily%3DMontserrat;fontSize=44;fontColor=#FFFFFF;fontStyle=1" vertex="1" parent="1">
          <mxGeometry x="3510" y="-35" width="240" height="240" as="geometry" />
        </mxCell>
        <mxCell id="PK9UF2O47_-60o2HS9_3-1633" value="&lt;p style=&quot;line-height: 70%;&quot;&gt;&lt;font style=&quot;&quot;&gt;&lt;font style=&quot;font-size: 36px;&quot;&gt;Alcohol&lt;br&gt;&lt;/font&gt;&lt;/font&gt;&lt;font style=&quot;font-size: 16px;&quot;&gt;Алкоголь&lt;/font&gt;&lt;/p&gt;" style="ellipse;whiteSpace=wrap;html=1;aspect=fixed;fillColor=#FF9933;strokeColor=none;fontFamily=Montserrat;fontSource=https%3A%2F%2Ffonts.googleapis.com%2Fcss%3Ffamily%3DMontserrat;fontSize=44;fontColor=#FFFFFF;fontStyle=1" vertex="1" parent="1">
          <mxGeometry x="3670" y="-265" width="240" height="240" as="geometry" />
        </mxCell>
        <mxCell id="PK9UF2O47_-60o2HS9_3-1634" value="&lt;p style=&quot;line-height: 70%;&quot;&gt;&lt;font style=&quot;&quot;&gt;&lt;font style=&quot;font-size: 36px;&quot;&gt;Salads&lt;br&gt;&lt;/font&gt;&lt;/font&gt;&lt;font style=&quot;font-size: 16px;&quot;&gt;Салаты&lt;/font&gt;&lt;/p&gt;" style="ellipse;whiteSpace=wrap;html=1;aspect=fixed;fillColor=#FF9933;strokeColor=none;fontFamily=Montserrat;fontSource=https%3A%2F%2Ffonts.googleapis.com%2Fcss%3Ffamily%3DMontserrat;fontSize=44;fontColor=#FFFFFF;fontStyle=1" vertex="1" parent="1">
          <mxGeometry x="3930" y="-335" width="240" height="240" as="geometry" />
        </mxCell>
        <mxCell id="PK9UF2O47_-60o2HS9_3-1635" value="&lt;p style=&quot;line-height: 70%;&quot;&gt;&lt;font style=&quot;&quot;&gt;&lt;font style=&quot;font-size: 36px;&quot;&gt;Pizza&lt;br&gt;&lt;/font&gt;&lt;/font&gt;&lt;font style=&quot;font-size: 16px;&quot;&gt;Пицца&lt;/font&gt;&lt;/p&gt;" style="ellipse;whiteSpace=wrap;html=1;aspect=fixed;fillColor=#FF9933;strokeColor=none;fontFamily=Montserrat;fontSource=https%3A%2F%2Ffonts.googleapis.com%2Fcss%3Ffamily%3DMontserrat;fontSize=44;fontColor=#FFFFFF;fontStyle=1" vertex="1" parent="1">
          <mxGeometry x="4210" y="-265" width="240" height="240" as="geometry" />
        </mxCell>
        <mxCell id="PK9UF2O47_-60o2HS9_3-1636" value="&lt;p style=&quot;line-height: 70%;&quot;&gt;&lt;font style=&quot;&quot;&gt;&lt;font style=&quot;font-size: 36px;&quot;&gt;Hot dishes&lt;br&gt;&lt;/font&gt;&lt;/font&gt;&lt;font style=&quot;font-size: 16px;&quot;&gt;Горячее&lt;/font&gt;&lt;/p&gt;" style="ellipse;whiteSpace=wrap;html=1;aspect=fixed;fillColor=#FF9933;strokeColor=none;fontFamily=Montserrat;fontSource=https%3A%2F%2Ffonts.googleapis.com%2Fcss%3Ffamily%3DMontserrat;fontSize=44;fontColor=#FFFFFF;fontStyle=1" vertex="1" parent="1">
          <mxGeometry x="4380" y="-35" width="240" height="240" as="geometry" />
        </mxCell>
        <mxCell id="PK9UF2O47_-60o2HS9_3-1638" value="&lt;p style=&quot;line-height: 70%;&quot;&gt;&lt;font style=&quot;&quot;&gt;&lt;font style=&quot;font-size: 36px;&quot;&gt;Asian&lt;br&gt;&lt;/font&gt;&lt;/font&gt;&lt;font style=&quot;font-size: 16px;&quot;&gt;Азиатская кухня&lt;/font&gt;&lt;/p&gt;" style="ellipse;whiteSpace=wrap;html=1;aspect=fixed;fillColor=#FF9933;strokeColor=none;fontFamily=Montserrat;fontSource=https%3A%2F%2Ffonts.googleapis.com%2Fcss%3Ffamily%3DMontserrat;fontSize=44;fontColor=#FFFFFF;fontStyle=1" vertex="1" parent="1">
          <mxGeometry x="4370" y="235" width="240" height="240" as="geometry" />
        </mxCell>
        <mxCell id="PK9UF2O47_-60o2HS9_3-1639" value="&lt;p style=&quot;line-height: 70%;&quot;&gt;&lt;font style=&quot;&quot;&gt;&lt;font style=&quot;font-size: 36px;&quot;&gt;Dessert&lt;br&gt;&lt;/font&gt;&lt;/font&gt;&lt;span style=&quot;font-size: 16px;&quot;&gt;Десерты&lt;/span&gt;&lt;/p&gt;" style="ellipse;whiteSpace=wrap;html=1;aspect=fixed;fillColor=#FF9933;strokeColor=none;fontFamily=Montserrat;fontSource=https%3A%2F%2Ffonts.googleapis.com%2Fcss%3Ffamily%3DMontserrat;fontSize=44;fontColor=#FFFFFF;fontStyle=1" vertex="1" parent="1">
          <mxGeometry x="4190" y="485" width="240" height="240" as="geometry" />
        </mxCell>
        <mxCell id="PK9UF2O47_-60o2HS9_3-1640" value="&lt;p style=&quot;line-height: 70%;&quot;&gt;&lt;font style=&quot;&quot;&gt;&lt;font style=&quot;font-size: 36px;&quot;&gt;Bakery&lt;br&gt;&lt;/font&gt;&lt;/font&gt;&lt;span style=&quot;font-size: 16px;&quot;&gt;Выпечка&lt;/span&gt;&lt;/p&gt;" style="ellipse;whiteSpace=wrap;html=1;aspect=fixed;fillColor=#FF9933;strokeColor=none;fontFamily=Montserrat;fontSource=https%3A%2F%2Ffonts.googleapis.com%2Fcss%3Ffamily%3DMontserrat;fontSize=44;fontColor=#FFFFFF;fontStyle=1" vertex="1" parent="1">
          <mxGeometry x="3890" y="545" width="240" height="240" as="geometry" />
        </mxCell>
        <mxCell id="PK9UF2O47_-60o2HS9_3-1643" value="" style="endArrow=none;html=1;rounded=0;strokeWidth=6;strokeColor=#FF8000;" edge="1" parent="1" source="PK9UF2O47_-60o2HS9_3-1627" target="PK9UF2O47_-60o2HS9_3-1640">
          <mxGeometry width="50" height="50" relative="1" as="geometry">
            <mxPoint x="3952" y="381" as="sourcePoint" />
            <mxPoint x="3551" y="777" as="targetPoint" />
          </mxGeometry>
        </mxCell>
        <mxCell id="PK9UF2O47_-60o2HS9_3-1644" value="" style="endArrow=none;html=1;rounded=0;strokeWidth=6;strokeColor=#FF8000;" edge="1" parent="1" source="PK9UF2O47_-60o2HS9_3-1632" target="PK9UF2O47_-60o2HS9_3-1627">
          <mxGeometry width="50" height="50" relative="1" as="geometry">
            <mxPoint x="4029" y="428" as="sourcePoint" />
            <mxPoint x="3984" y="580" as="targetPoint" />
          </mxGeometry>
        </mxCell>
        <mxCell id="PK9UF2O47_-60o2HS9_3-1645" value="" style="endArrow=none;html=1;rounded=0;strokeWidth=6;strokeColor=#FF8000;" edge="1" parent="1" source="PK9UF2O47_-60o2HS9_3-1633" target="PK9UF2O47_-60o2HS9_3-1627">
          <mxGeometry width="50" height="50" relative="1" as="geometry">
            <mxPoint x="4039" y="438" as="sourcePoint" />
            <mxPoint x="3994" y="590" as="targetPoint" />
          </mxGeometry>
        </mxCell>
        <mxCell id="PK9UF2O47_-60o2HS9_3-1646" value="" style="endArrow=none;html=1;rounded=0;strokeWidth=6;strokeColor=#FF8000;" edge="1" parent="1" source="PK9UF2O47_-60o2HS9_3-1634" target="PK9UF2O47_-60o2HS9_3-1627">
          <mxGeometry width="50" height="50" relative="1" as="geometry">
            <mxPoint x="4049" y="448" as="sourcePoint" />
            <mxPoint x="4004" y="600" as="targetPoint" />
          </mxGeometry>
        </mxCell>
        <mxCell id="PK9UF2O47_-60o2HS9_3-1647" value="" style="endArrow=none;html=1;rounded=0;strokeWidth=6;strokeColor=#FF8000;" edge="1" parent="1" source="PK9UF2O47_-60o2HS9_3-1635" target="PK9UF2O47_-60o2HS9_3-1627">
          <mxGeometry width="50" height="50" relative="1" as="geometry">
            <mxPoint x="4059" y="458" as="sourcePoint" />
            <mxPoint x="4014" y="610" as="targetPoint" />
          </mxGeometry>
        </mxCell>
        <mxCell id="PK9UF2O47_-60o2HS9_3-1648" value="" style="endArrow=none;html=1;rounded=0;strokeWidth=6;strokeColor=#FF8000;" edge="1" parent="1" source="PK9UF2O47_-60o2HS9_3-1636" target="PK9UF2O47_-60o2HS9_3-1627">
          <mxGeometry width="50" height="50" relative="1" as="geometry">
            <mxPoint x="4069" y="468" as="sourcePoint" />
            <mxPoint x="4024" y="620" as="targetPoint" />
          </mxGeometry>
        </mxCell>
        <mxCell id="PK9UF2O47_-60o2HS9_3-1649" value="" style="endArrow=none;html=1;rounded=0;strokeWidth=6;strokeColor=#FF8000;" edge="1" parent="1" source="PK9UF2O47_-60o2HS9_3-1638" target="PK9UF2O47_-60o2HS9_3-1627">
          <mxGeometry width="50" height="50" relative="1" as="geometry">
            <mxPoint x="4079" y="478" as="sourcePoint" />
            <mxPoint x="4034" y="630" as="targetPoint" />
          </mxGeometry>
        </mxCell>
        <mxCell id="PK9UF2O47_-60o2HS9_3-1651" value="" style="endArrow=none;html=1;rounded=0;strokeWidth=6;strokeColor=#FF8000;" edge="1" parent="1" source="PK9UF2O47_-60o2HS9_3-1627" target="PK9UF2O47_-60o2HS9_3-1631">
          <mxGeometry width="50" height="50" relative="1" as="geometry">
            <mxPoint x="3697" y="163" as="sourcePoint" />
            <mxPoint x="3905" y="213" as="targetPoint" />
          </mxGeometry>
        </mxCell>
        <mxCell id="PK9UF2O47_-60o2HS9_3-1653" value="" style="endArrow=none;html=1;rounded=0;strokeWidth=6;strokeColor=#FF8000;" edge="1" parent="1" source="PK9UF2O47_-60o2HS9_3-1627" target="PK9UF2O47_-60o2HS9_3-1639">
          <mxGeometry width="50" height="50" relative="1" as="geometry">
            <mxPoint x="4029" y="428" as="sourcePoint" />
            <mxPoint x="3984" y="580" as="targetPoint" />
          </mxGeometry>
        </mxCell>
        <mxCell id="PK9UF2O47_-60o2HS9_3-1655" value="&lt;font style=&quot;font-size: 66px;&quot;&gt;Serving&lt;br style=&quot;&quot;&gt;&lt;/font&gt;&lt;font style=&quot;font-size: 28px;&quot;&gt;Сервировка&lt;/font&gt;" style="ellipse;whiteSpace=wrap;html=1;aspect=fixed;fillColor=#CC6600;strokeColor=none;fontFamily=Montserrat;fontSource=https%3A%2F%2Ffonts.googleapis.com%2Fcss%3Ffamily%3DMontserrat;fontSize=44;fontColor=#FFFFFF;fontStyle=1" vertex="1" parent="1">
          <mxGeometry x="1030" y="-2175" width="480" height="480" as="geometry" />
        </mxCell>
        <mxCell id="PK9UF2O47_-60o2HS9_3-1656" value="&lt;font style=&quot;font-size: 66px;&quot;&gt;Cleaning&lt;br style=&quot;&quot;&gt;&lt;/font&gt;&lt;span style=&quot;font-size: 28px;&quot;&gt;Для уборки&lt;/span&gt;" style="ellipse;whiteSpace=wrap;html=1;aspect=fixed;fillColor=#CC6600;strokeColor=none;fontFamily=Montserrat;fontSource=https%3A%2F%2Ffonts.googleapis.com%2Fcss%3Ffamily%3DMontserrat;fontSize=44;fontColor=#FFFFFF;fontStyle=1" vertex="1" parent="1">
          <mxGeometry x="1550" y="-2405" width="480" height="480" as="geometry" />
        </mxCell>
        <mxCell id="PK9UF2O47_-60o2HS9_3-1657" value="&lt;font style=&quot;font-size: 66px;&quot;&gt;Furniture&lt;br style=&quot;&quot;&gt;&lt;/font&gt;&lt;font style=&quot;font-size: 28px;&quot;&gt;Мебель&lt;/font&gt;" style="ellipse;whiteSpace=wrap;html=1;aspect=fixed;fillColor=#CC6600;strokeColor=none;fontFamily=Montserrat;fontSource=https%3A%2F%2Ffonts.googleapis.com%2Fcss%3Ffamily%3DMontserrat;fontSize=44;fontColor=#FFFFFF;fontStyle=1" vertex="1" parent="1">
          <mxGeometry x="2270" y="-1595" width="480" height="480" as="geometry" />
        </mxCell>
        <mxCell id="PK9UF2O47_-60o2HS9_3-1658" value="&lt;font style=&quot;font-size: 66px;&quot;&gt;Machines&lt;br style=&quot;&quot;&gt;&lt;/font&gt;&lt;span style=&quot;font-size: 28px;&quot;&gt;Аппаратура&lt;/span&gt;" style="ellipse;whiteSpace=wrap;html=1;aspect=fixed;fillColor=#CC6600;strokeColor=none;fontFamily=Montserrat;fontSource=https%3A%2F%2Ffonts.googleapis.com%2Fcss%3Ffamily%3DMontserrat;fontSize=44;fontColor=#FFFFFF;fontStyle=1" vertex="1" parent="1">
          <mxGeometry x="790" y="-1685" width="480" height="480" as="geometry" />
        </mxCell>
        <mxCell id="PK9UF2O47_-60o2HS9_3-1660" value="&lt;font style=&quot;font-size: 66px;&quot;&gt;Electronics&lt;br style=&quot;&quot;&gt;&lt;/font&gt;&lt;span style=&quot;font-size: 28px;&quot;&gt;Электроника&lt;/span&gt;" style="ellipse;whiteSpace=wrap;html=1;aspect=fixed;fillColor=#CC6600;strokeColor=none;fontFamily=Montserrat;fontSource=https%3A%2F%2Ffonts.googleapis.com%2Fcss%3Ffamily%3DMontserrat;fontSize=44;fontColor=#FFFFFF;fontStyle=1" vertex="1" parent="1">
          <mxGeometry x="2100" y="-2125" width="480" height="480" as="geometry" />
        </mxCell>
        <mxCell id="PK9UF2O47_-60o2HS9_3-1661" value="" style="endArrow=none;html=1;rounded=0;strokeWidth=6;strokeColor=#994C00;" edge="1" parent="1" source="PK9UF2O47_-60o2HS9_3-1618" target="PK9UF2O47_-60o2HS9_3-1657">
          <mxGeometry width="50" height="50" relative="1" as="geometry">
            <mxPoint x="2939" y="222" as="sourcePoint" />
            <mxPoint x="3260" y="242" as="targetPoint" />
          </mxGeometry>
        </mxCell>
        <mxCell id="PK9UF2O47_-60o2HS9_3-1663" value="" style="endArrow=none;html=1;rounded=0;strokeWidth=6;strokeColor=#994C00;" edge="1" parent="1" source="PK9UF2O47_-60o2HS9_3-1618">
          <mxGeometry width="50" height="50" relative="1" as="geometry">
            <mxPoint x="2100" y="-1335" as="sourcePoint" />
            <mxPoint x="1269.914712150894" y="-1368.6022743426438" as="targetPoint" />
          </mxGeometry>
        </mxCell>
        <mxCell id="PK9UF2O47_-60o2HS9_3-1664" value="" style="endArrow=none;html=1;rounded=0;strokeWidth=6;strokeColor=#994C00;" edge="1" parent="1" source="PK9UF2O47_-60o2HS9_3-1618" target="PK9UF2O47_-60o2HS9_3-1655">
          <mxGeometry width="50" height="50" relative="1" as="geometry">
            <mxPoint x="2110" y="-1325" as="sourcePoint" />
            <mxPoint x="2300" y="-1325" as="targetPoint" />
          </mxGeometry>
        </mxCell>
        <mxCell id="PK9UF2O47_-60o2HS9_3-1665" value="" style="endArrow=none;html=1;rounded=0;strokeWidth=6;strokeColor=#994C00;" edge="1" parent="1" source="PK9UF2O47_-60o2HS9_3-1618" target="PK9UF2O47_-60o2HS9_3-1656">
          <mxGeometry width="50" height="50" relative="1" as="geometry">
            <mxPoint x="2120" y="-1315" as="sourcePoint" />
            <mxPoint x="2310" y="-1315" as="targetPoint" />
          </mxGeometry>
        </mxCell>
        <mxCell id="PK9UF2O47_-60o2HS9_3-1666" value="" style="endArrow=none;html=1;rounded=0;strokeWidth=6;strokeColor=#994C00;" edge="1" parent="1" source="PK9UF2O47_-60o2HS9_3-1618" target="PK9UF2O47_-60o2HS9_3-1660">
          <mxGeometry width="50" height="50" relative="1" as="geometry">
            <mxPoint x="2130" y="-1305" as="sourcePoint" />
            <mxPoint x="2320" y="-1305" as="targetPoint" />
          </mxGeometry>
        </mxCell>
        <mxCell id="PK9UF2O47_-60o2HS9_3-1667" value="&lt;font style=&quot;font-size: 96px;&quot;&gt;Sub&lt;br&gt;Task&lt;br style=&quot;&quot;&gt;&lt;/font&gt;&lt;span style=&quot;font-size: 32px;&quot;&gt;Подзадача&lt;br&gt;&lt;/span&gt;" style="ellipse;whiteSpace=wrap;html=1;aspect=fixed;fillColor=#4C0099;strokeColor=none;fontFamily=Montserrat;fontSource=https%3A%2F%2Ffonts.googleapis.com%2Fcss%3Ffamily%3DMontserrat;fontSize=44;fontColor=#FFFFFF;fontStyle=1" vertex="1" parent="1">
          <mxGeometry x="1870" y="1480" width="600" height="600" as="geometry" />
        </mxCell>
        <mxCell id="PK9UF2O47_-60o2HS9_3-1668" value="&lt;span style=&quot;font-size: 66px;&quot;&gt;Access&lt;br&gt;Levels&lt;br&gt;&lt;/span&gt;&lt;span style=&quot;font-size: 28px;&quot;&gt;Уровни доступа&lt;/span&gt;" style="ellipse;whiteSpace=wrap;html=1;aspect=fixed;fillColor=#6600CC;strokeColor=none;fontFamily=Montserrat;fontSource=https%3A%2F%2Ffonts.googleapis.com%2Fcss%3Ffamily%3DMontserrat;fontSize=44;fontColor=#FFFFFF;fontStyle=1" vertex="1" parent="1">
          <mxGeometry x="1930" y="2270" width="480" height="480" as="geometry" />
        </mxCell>
        <mxCell id="PK9UF2O47_-60o2HS9_3-1669" value="&lt;font style=&quot;font-size: 48px;&quot;&gt;Create&lt;br&gt;&lt;/font&gt;&lt;font style=&quot;font-size: 22px;&quot;&gt;Создание&lt;/font&gt;" style="ellipse;whiteSpace=wrap;html=1;aspect=fixed;fillColor=#7F00FF;strokeColor=none;fontFamily=Montserrat;fontSource=https%3A%2F%2Ffonts.googleapis.com%2Fcss%3Ffamily%3DMontserrat;fontSize=44;fontColor=#FFFFFF;fontStyle=1" vertex="1" parent="1">
          <mxGeometry x="2520" y="2150" width="360" height="360" as="geometry" />
        </mxCell>
        <mxCell id="PK9UF2O47_-60o2HS9_3-1670" value="&lt;font style=&quot;font-size: 48px;&quot;&gt;Change&lt;br&gt;&lt;/font&gt;&lt;span style=&quot;font-size: 22px;&quot;&gt;Изменение&lt;/span&gt;" style="ellipse;whiteSpace=wrap;html=1;aspect=fixed;fillColor=#7F00FF;strokeColor=none;fontFamily=Montserrat;fontSource=https%3A%2F%2Ffonts.googleapis.com%2Fcss%3Ffamily%3DMontserrat;fontSize=44;fontColor=#FFFFFF;fontStyle=1" vertex="1" parent="1">
          <mxGeometry x="2490" y="2610" width="360" height="360" as="geometry" />
        </mxCell>
        <mxCell id="PK9UF2O47_-60o2HS9_3-1671" value="&lt;font style=&quot;font-size: 48px;&quot;&gt;Inspect&lt;br&gt;&lt;/font&gt;&lt;span style=&quot;font-size: 22px;&quot;&gt;Подтверждение&lt;/span&gt;" style="ellipse;whiteSpace=wrap;html=1;aspect=fixed;fillColor=#7F00FF;strokeColor=none;fontFamily=Montserrat;fontSource=https%3A%2F%2Ffonts.googleapis.com%2Fcss%3Ffamily%3DMontserrat;fontSize=44;fontColor=#FFFFFF;fontStyle=1" vertex="1" parent="1">
          <mxGeometry x="2160" y="2880" width="360" height="360" as="geometry" />
        </mxCell>
        <mxCell id="PK9UF2O47_-60o2HS9_3-1672" value="&lt;font style=&quot;font-size: 48px;&quot;&gt;Execute&lt;br&gt;&lt;/font&gt;&lt;span style=&quot;font-size: 22px;&quot;&gt;Выполнение&lt;/span&gt;" style="ellipse;whiteSpace=wrap;html=1;aspect=fixed;fillColor=#7F00FF;strokeColor=none;fontFamily=Montserrat;fontSource=https%3A%2F%2Ffonts.googleapis.com%2Fcss%3Ffamily%3DMontserrat;fontSize=44;fontColor=#FFFFFF;fontStyle=1" vertex="1" parent="1">
          <mxGeometry x="1740" y="2860" width="360" height="360" as="geometry" />
        </mxCell>
        <mxCell id="PK9UF2O47_-60o2HS9_3-1673" value="&lt;font style=&quot;font-size: 48px;&quot;&gt;Delete&lt;br&gt;&lt;/font&gt;&lt;span style=&quot;font-size: 22px;&quot;&gt;Удаление&lt;/span&gt;" style="ellipse;whiteSpace=wrap;html=1;aspect=fixed;fillColor=#7F00FF;strokeColor=none;fontFamily=Montserrat;fontSource=https%3A%2F%2Ffonts.googleapis.com%2Fcss%3Ffamily%3DMontserrat;fontSize=44;fontColor=#FFFFFF;fontStyle=1" vertex="1" parent="1">
          <mxGeometry x="1450" y="2550" width="360" height="360" as="geometry" />
        </mxCell>
        <mxCell id="PK9UF2O47_-60o2HS9_3-1674" value="" style="endArrow=none;html=1;rounded=0;strokeWidth=6;strokeColor=#4C0099;" edge="1" parent="1" source="PK9UF2O47_-60o2HS9_3-1667" target="PK9UF2O47_-60o2HS9_3-1617">
          <mxGeometry width="50" height="50" relative="1" as="geometry">
            <mxPoint x="4029" y="-136" as="sourcePoint" />
            <mxPoint x="3697" y="-262" as="targetPoint" />
          </mxGeometry>
        </mxCell>
        <mxCell id="PK9UF2O47_-60o2HS9_3-1675" value="" style="endArrow=none;html=1;rounded=0;strokeWidth=6;strokeColor=#6600CC;" edge="1" parent="1" source="PK9UF2O47_-60o2HS9_3-1667" target="PK9UF2O47_-60o2HS9_3-1668">
          <mxGeometry width="50" height="50" relative="1" as="geometry">
            <mxPoint x="2180" y="1490" as="sourcePoint" />
            <mxPoint x="2180" y="1330" as="targetPoint" />
          </mxGeometry>
        </mxCell>
        <mxCell id="PK9UF2O47_-60o2HS9_3-1676" value="" style="endArrow=none;html=1;rounded=0;strokeWidth=6;strokeColor=#6600CC;" edge="1" parent="1" source="PK9UF2O47_-60o2HS9_3-1668" target="PK9UF2O47_-60o2HS9_3-1669">
          <mxGeometry width="50" height="50" relative="1" as="geometry">
            <mxPoint x="2180" y="2090" as="sourcePoint" />
            <mxPoint x="2180" y="2280" as="targetPoint" />
          </mxGeometry>
        </mxCell>
        <mxCell id="PK9UF2O47_-60o2HS9_3-1677" value="" style="endArrow=none;html=1;rounded=0;strokeWidth=6;strokeColor=#6600CC;" edge="1" parent="1" source="PK9UF2O47_-60o2HS9_3-1668" target="PK9UF2O47_-60o2HS9_3-1670">
          <mxGeometry width="50" height="50" relative="1" as="geometry">
            <mxPoint x="2418" y="2487" as="sourcePoint" />
            <mxPoint x="2502" y="2475" as="targetPoint" />
          </mxGeometry>
        </mxCell>
        <mxCell id="PK9UF2O47_-60o2HS9_3-1678" value="" style="endArrow=none;html=1;rounded=0;strokeWidth=6;strokeColor=#6600CC;" edge="1" parent="1" source="PK9UF2O47_-60o2HS9_3-1668" target="PK9UF2O47_-60o2HS9_3-1671">
          <mxGeometry width="50" height="50" relative="1" as="geometry">
            <mxPoint x="2359" y="2680" as="sourcePoint" />
            <mxPoint x="2446" y="2760" as="targetPoint" />
          </mxGeometry>
        </mxCell>
        <mxCell id="PK9UF2O47_-60o2HS9_3-1679" value="" style="endArrow=none;html=1;rounded=0;strokeWidth=6;strokeColor=#6600CC;" edge="1" parent="1" source="PK9UF2O47_-60o2HS9_3-1672" target="PK9UF2O47_-60o2HS9_3-1668">
          <mxGeometry width="50" height="50" relative="1" as="geometry">
            <mxPoint x="2171" y="2760" as="sourcePoint" />
            <mxPoint x="2167" y="2880" as="targetPoint" />
          </mxGeometry>
        </mxCell>
        <mxCell id="PK9UF2O47_-60o2HS9_3-1681" value="" style="endArrow=none;html=1;rounded=0;strokeWidth=6;strokeColor=#6600CC;" edge="1" parent="1" source="PK9UF2O47_-60o2HS9_3-1673" target="PK9UF2O47_-60o2HS9_3-1668">
          <mxGeometry width="50" height="50" relative="1" as="geometry">
            <mxPoint x="1916" y="2752" as="sourcePoint" />
            <mxPoint x="1999" y="2678" as="targetPoint" />
          </mxGeometry>
        </mxCell>
        <mxCell id="PK9UF2O47_-60o2HS9_3-1683" value="&lt;font style=&quot;font-size: 48px;&quot;&gt;See&lt;br&gt;&lt;/font&gt;&lt;span style=&quot;font-size: 22px;&quot;&gt;Просмотр&lt;br&gt;&lt;/span&gt;" style="ellipse;whiteSpace=wrap;html=1;aspect=fixed;fillColor=#7F00FF;strokeColor=none;fontFamily=Montserrat;fontSource=https%3A%2F%2Ffonts.googleapis.com%2Fcss%3Ffamily%3DMontserrat;fontSize=44;fontColor=#FFFFFF;fontStyle=1" vertex="1" parent="1">
          <mxGeometry x="1460" y="2120" width="360" height="360" as="geometry" />
        </mxCell>
        <mxCell id="PK9UF2O47_-60o2HS9_3-1684" value="" style="endArrow=none;html=1;rounded=0;strokeWidth=6;strokeColor=#6600CC;" edge="1" parent="1" source="PK9UF2O47_-60o2HS9_3-1668" target="PK9UF2O47_-60o2HS9_3-1683">
          <mxGeometry width="50" height="50" relative="1" as="geometry">
            <mxPoint x="1858" y="2475" as="sourcePoint" />
            <mxPoint x="1942" y="2487" as="targetPoint" />
          </mxGeometry>
        </mxCell>
      </root>
    </mxGraphModel>
  </diagram>
</mxfile>
